<svg id="Layer_1" data-name="Layer 1" xmlns="http://www.w3.org/2000/svg" xmlns:xlink="http://www.w3.org/1999/xlink" viewBox="0 0 1000 469.96"><defs><style>.cls-1{fill:url(#linear-gradient);}.cls-2{fill:#09006e;}.cls-3{fill:url(#linear-gradient-2);}</style><linearGradient id="linear-gradient" x1="236.48" y1="778.11" x2="237.88" y2="778.11" gradientTransform="matrix(119.55, -207.07, -53.09, -30.65, 13371.72, 73183.38)" gradientUnits="userSpaceOnUse"><stop offset="0" stop-color="#09006e"/><stop offset="0.66" stop-color="#064e8f"/><stop offset="0.68" stop-color="#056197"/><stop offset="0.74" stop-color="#0491ab"/><stop offset="0.8" stop-color="#02b9bc"/><stop offset="0.85" stop-color="#01d7c8"/><stop offset="0.9" stop-color="#01edd2"/><stop offset="0.95" stop-color="#00fbd7"/><stop offset="1" stop-color="#00ffd9"/></linearGradient><linearGradient id="linear-gradient-2" x1="236.13" y1="778.12" x2="237.53" y2="778.12" gradientTransform="matrix(119.55, -207.07, -53.09, -30.65, 13371.72, 73183.38)" gradientUnits="userSpaceOnUse"><stop offset="0" stop-color="#09006e"/><stop offset="0.17" stop-color="#08227c"/><stop offset="0.37" stop-color="#064e8f"/><stop offset="0.4" stop-color="#056197"/><stop offset="0.48" stop-color="#0491ab"/><stop offset="0.56" stop-color="#02b9bc"/><stop offset="0.63" stop-color="#01d7c8"/><stop offset="0.71" stop-color="#01edd2"/><stop offset="0.78" stop-color="#00fbd7"/><stop offset="0.85" stop-color="#00ffd9"/></linearGradient></defs><path id="Rectangle" class="cls-1" d="M317.31,305l126-218.26a43.45,43.45,0,0,1,59.36-15.9h0a43.45,43.45,0,0,1,15.9,59.35l-126,218.26a43.45,43.45,0,0,1-59.36,15.9h0A43.44,43.44,0,0,1,317.31,305Z" transform="translate(-100 -65.02)"/><path id="MXC" class="cls-2" d="M365.77,535l-.85-135.65L300.29,508.19H256.06L191.43,404V535H100V237.31h82.5l96.95,158.61,94.4-158.61h82.5L457.2,535Zm328.29,0-51.45-79.52L592.43,535H478L585.62,384.87,481.87,237.31H594.55l50.61,74.84,49.33-74.84h108L699.16,381,808.87,535Zm278.25,0q-45.13,0-81.33-18.91T834.26,463.2q-20.55-33.94-20.54-77.06t20.54-77.06Q854.8,275.14,891,256.22t81.33-18.91q41.48,0,74,14.64A137.43,137.43,0,0,1,1100,294.24l-60.59,54.09Q1013,315,977.19,315q-30.09,0-48.39,19.32t-18.3,51.84q0,32.53,18.3,51.85t48.39,19.32q35.79,0,62.22-33.35L1100,478.05a137.43,137.43,0,0,1-53.68,42.29Q1013.79,535,972.31,535Z" transform="translate(-100 -65.02)"/><path id="Rectangle-2" data-name="Rectangle" class="cls-3" d="M274.79,377.3,400.8,159a43.45,43.45,0,0,1,59.35-15.9h0a43.45,43.45,0,0,1,15.91,59.35L350,420.75a43.44,43.44,0,0,1-59.35,15.9h0A43.45,43.45,0,0,1,274.79,377.3Z" transform="translate(-100 -65.02)"/></svg>